<?xml version="1.0" encoding="utf-8"?>
<!-- Generator: Adobe Illustrator 24.0.0, SVG Export Plug-In . SVG Version: 6.00 Build 0)  -->
<svg version="1.1" id="CD" xmlns="http://www.w3.org/2000/svg" xmlns:xlink="http://www.w3.org/1999/xlink" x="0px" y="0px"
	 viewBox="0 0 68 68" style="enable-background:new 0 0 68 68;" xml:space="preserve">
<style type="text/css">
	.st0{fill-rule:evenodd;clip-rule:evenodd;}
</style>
<path id="G" class="st0" d="M34,68C15.2,68,0,52.8,0,34S15.2,0,34,0s34,15.2,34,34S52.8,68,34,68z M10.9,43.6
	c-0.5,0.2-0.8,0.8-0.5,1.3c0,0,0,0,0.2,0.4c1.3,2.6,3,5,5.1,7.1c2.1,2.1,4.5,3.8,7.1,5.1c0.4,0.2,0.4,0.2,0.4,0.2
	c0.5,0.2,1.1,0,1.3-0.5l0.8-1.8c0.2-0.5,0-1.1-0.5-1.3c0,0,0.1,0.1-0.3-0.1c-2.2-1.1-4.2-2.5-6-4.3c-1.7-1.7-3.2-3.7-4.2-5.9
	c-0.2-0.4-0.1-0.3-0.1-0.3c-0.2-0.5-0.8-0.7-1.3-0.5L10.9,43.6z M57.1,24.4c0.5-0.2,0.8-0.8,0.5-1.3c0,0,0-0.1-0.2-0.5
	c-1.3-2.6-3-5-5-7c-2.1-2.1-4.6-3.9-7.3-5.2c-0.4-0.2-0.2-0.1-0.2-0.1c-0.5-0.2-1.1,0-1.3,0.5l-0.8,1.8c-0.2,0.5,0,1.1,0.5,1.3
	c0,0-0.1-0.1,0.3,0.1c2.2,1.1,4.2,2.5,5.9,4.2c1.7,1.7,3.1,3.7,4.2,5.9c0.2,0.4,0.2,0.4,0.2,0.4c0.2,0.5,0.8,0.7,1.3,0.5L57.1,24.4z
	 M34,48c7.7,0,14-6.3,14-14s-6.3-14-14-14s-14,6.3-14,14S26.3,48,34,48z M34,42c-4.4,0-8-3.6-8-8s3.6-8,8-8s8,3.6,8,8S38.4,42,34,42
	z M34,38c2.2,0,4-1.8,4-4s-1.8-4-4-4s-4,1.8-4,4S31.8,38,34,38z"/>
</svg>
